<svg width="60" height="60" viewBox="0 0 60 60" fill="none" xmlns="http://www.w3.org/2000/svg">
<circle cx="30" cy="30" r="30" fill="#F1C405"/>
<path d="M39.5863 30.3775C39.9768 29.9869 39.9768 29.3538 39.5863 28.9632L33.2223 22.5993C32.8318 22.2088 32.1986 22.2088 31.8081 22.5993C31.4176 22.9898 31.4176 23.623 31.8081 24.0135L37.4649 29.6703L31.8081 35.3272C31.4176 35.7177 31.4176 36.3509 31.8081 36.7414C32.1986 37.1319 32.8318 37.1319 33.2223 36.7414L39.5863 30.3775ZM20.8792 30.6703H38.8792V28.6703H20.8792V30.6703Z" fill="#220E5B"/>
<circle cx="30" cy="30" r="30" fill="#F1C405"/>
<path d="M48.0607 31.0607C48.6464 30.4749 48.6464 29.5251 48.0607 28.9393L38.5147 19.3934C37.9289 18.8076 36.9792 18.8076 36.3934 19.3934C35.8076 19.9792 35.8076 20.9289 36.3934 21.5147L44.8787 30L36.3934 38.4853C35.8076 39.0711 35.8076 40.0208 36.3934 40.6066C36.9792 41.1924 37.9289 41.1924 38.5147 40.6066L48.0607 31.0607ZM13 31.5L47 31.5L47 28.5L13 28.5L13 31.5Z" fill="#220E5B"/>
<circle cx="30" cy="30" r="30" fill="#F1C405"/>
<path d="M39.5863 30.3775C39.9768 29.9869 39.9768 29.3538 39.5863 28.9632L33.2223 22.5993C32.8318 22.2088 32.1986 22.2088 31.8081 22.5993C31.4176 22.9898 31.4176 23.623 31.8081 24.0135L37.4649 29.6703L31.8081 35.3272C31.4176 35.7177 31.4176 36.3509 31.8081 36.7414C32.1986 37.1319 32.8318 37.1319 33.2223 36.7414L39.5863 30.3775ZM20.8792 30.6703H38.8792V28.6703H20.8792V30.6703Z" fill="#220E5B"/>
<circle cx="30" cy="30" r="30" fill="#F1C405"/>
<path d="M43.7071 30.7071C44.0976 30.3166 44.0976 29.6834 43.7071 29.2929L37.3431 22.9289C36.9526 22.5384 36.3195 22.5384 35.9289 22.9289C35.5384 23.3195 35.5384 23.9526 35.9289 24.3431L41.5858 30L35.9289 35.6569C35.5384 36.0474 35.5384 36.6805 35.9289 37.0711C36.3195 37.4616 36.9526 37.4616 37.3431 37.0711L43.7071 30.7071ZM17 31L43 31L43 29L17 29L17 31Z" fill="#220E5B"/>
</svg>
