<svg width="43" height="43" viewBox="0 0 43 43" fill="none" xmlns="http://www.w3.org/2000/svg">
<circle cx="21.5" cy="21.5" r="21.5" fill="#F1C405"/>
<path d="M16.913 30H13V18.4091H16.913V30ZM14.9573 16.8636C13.875 16.8636 13 15.9974 13 14.931C13 13.8647 13.8765 13 14.9573 13C16.0357 13 16.913 13.8662 16.913 14.931C16.913 15.9974 16.0357 16.8636 14.9573 16.8636ZM31 30H27.238V24.3591C27.238 23.0138 27.2122 21.2836 25.2823 21.2836C23.3234 21.2836 23.0221 22.7487 23.0221 24.2617V30H19.2609V18.4006H22.8718V19.9855H22.9227C23.4251 19.0736 24.653 18.1124 26.4843 18.1124C30.2957 18.1124 31 20.5148 31 23.6381V30Z" fill="#220E5B"/>
</svg>
