<svg width="43" height="43" viewBox="0 0 43 43" fill="none" xmlns="http://www.w3.org/2000/svg">
<circle cx="21.5" cy="21.5" r="21.5" fill="#F1C405"/>
<path d="M21.0022 16.8723C18.1645 16.8723 15.8756 19.1617 15.8756 22C15.8756 24.8383 18.1645 27.1277 21.0022 27.1277C23.8399 27.1277 26.1288 24.8383 26.1288 22C26.1288 19.1617 23.8399 16.8723 21.0022 16.8723ZM21.0022 25.3337C19.1684 25.3337 17.6693 23.8387 17.6693 22C17.6693 20.1613 19.164 18.6663 21.0022 18.6663C22.8405 18.6663 24.3352 20.1613 24.3352 22C24.3352 23.8387 22.836 25.3337 21.0022 25.3337ZM27.5343 16.6625C27.5343 17.3275 26.9989 17.8585 26.3385 17.8585C25.6737 17.8585 25.1428 17.323 25.1428 16.6625C25.1428 16.002 25.6782 15.4665 26.3385 15.4665C26.9989 15.4665 27.5343 16.002 27.5343 16.6625ZM30.9297 17.8764C30.8539 16.2742 30.488 14.8551 29.3146 13.6858C28.1456 12.5166 26.7267 12.1506 25.1249 12.0703C23.4741 11.9766 18.5259 11.9766 16.8751 12.0703C15.2777 12.1462 13.8589 12.5121 12.6854 13.6814C11.512 14.8506 11.1506 16.2698 11.0703 17.8719C10.9766 19.5232 10.9766 24.4724 11.0703 26.1236C11.1461 27.7258 11.512 29.1449 12.6854 30.3142C13.8589 31.4834 15.2733 31.8494 16.8751 31.9297C18.5259 32.0234 23.4741 32.0234 25.1249 31.9297C26.7267 31.8538 28.1456 31.4879 29.3146 30.3142C30.4835 29.1449 30.8494 27.7258 30.9297 26.1236C31.0234 24.4724 31.0234 19.5276 30.9297 17.8764ZM28.797 27.8953C28.449 28.7701 27.7752 29.4439 26.8963 29.7965C25.58 30.3186 22.4568 30.1981 21.0022 30.1981C19.5477 30.1981 16.42 30.3142 15.1082 29.7965C14.2337 29.4484 13.56 28.7745 13.2075 27.8953C12.6854 26.5788 12.8059 23.4549 12.8059 22C12.8059 20.5451 12.6899 17.4167 13.2075 16.1047C13.5555 15.2299 14.2292 14.5561 15.1082 14.2035C16.4244 13.6814 19.5477 13.8019 21.0022 13.8019C22.4568 13.8019 25.5845 13.6858 26.8963 14.2035C27.7708 14.5516 28.4445 15.2255 28.797 16.1047C29.319 17.4212 29.1985 20.5451 29.1985 22C29.1985 23.4549 29.319 26.5833 28.797 27.8953Z" fill="#220E5B"/>
</svg>
