<svg width="40" height="41" viewBox="0 0 40 41" fill="none" xmlns="http://www.w3.org/2000/svg">
<path d="M36.3636 0.430176H3.63636C1.62727 0.430176 0 2.06332 0 4.07965V36.9249C0 38.9413 1.62727 40.5744 3.63636 40.5744H21.8182V24.1518H16.3636V18.6775H21.8182V15.7379C21.8182 10.1724 24.52 7.72913 29.1291 7.72913C31.3364 7.72913 32.5036 7.89335 33.0564 7.96817V13.2033H29.9127C27.9564 13.2033 27.2727 14.2398 27.2727 16.3382V18.6775H33.0073L32.2291 24.1518H27.2727V40.5744H36.3636C38.3727 40.5744 40 38.9413 40 36.9249V4.07965C40 2.06332 38.3709 0.430176 36.3636 0.430176Z" fill="white"/>
</svg>
