<svg width="40" height="41" viewBox="0 0 40 41" fill="none" xmlns="http://www.w3.org/2000/svg">
<path d="M36.3636 0.430176H3.63636C1.62727 0.430176 0 2.06332 0 4.07965V36.9249C0 38.9413 1.62727 40.5744 3.63636 40.5744H36.3636C38.3727 40.5744 40 38.9413 40 36.9249V4.07965C40 2.06332 38.3727 0.430176 36.3636 0.430176ZM12.6436 33.2754H7.28V15.955H12.6436V33.2754ZM9.90727 13.4789C8.17818 13.4789 6.78 12.072 6.78 10.3403C6.78 8.60865 8.18 7.2036 9.90727 7.2036C11.6309 7.2036 13.0327 8.61047 13.0327 10.3403C13.0327 12.072 11.6309 13.4789 9.90727 13.4789ZM32.7345 33.2754H27.3745V24.8525C27.3745 22.8434 27.3382 20.2596 24.5873 20.2596C21.7964 20.2596 21.3673 22.4475 21.3673 24.7065V33.2754H16.0073V15.955H21.1527V18.3217H21.2255C21.9418 16.9605 23.6909 15.5244 26.3 15.5244C31.7309 15.5244 32.7345 19.1118 32.7345 23.7759V33.2754Z" fill="white"/>
</svg>
