<svg width="40" height="41" viewBox="0 0 40 41" fill="none" xmlns="http://www.w3.org/2000/svg">
<path d="M3.63636 0.430176C1.62727 0.430176 0 2.06332 0 4.07965V36.9249C0 38.9413 1.62727 40.5744 3.63636 40.5744H36.3636C38.3727 40.5744 40 38.9413 40 36.9249V4.07965C40 2.06332 38.3727 0.430176 36.3636 0.430176H3.63636ZM8.4517 9.55386H16.8359L21.7294 16.5748L27.7841 9.55386H30.4226L22.9155 18.2784L32.0987 31.4507H23.7145L18.2848 23.6599L11.5803 31.4507H8.89915L17.0916 21.9528L8.4517 9.55386ZM12.5071 11.7136L24.7869 29.2803H28.0398L15.7564 11.7136H12.5071Z" fill="white"/>
</svg>
