<svg width="40" height="40" viewBox="0 0 40 40" fill="none" xmlns="http://www.w3.org/2000/svg">
<path d="M20 5.3335C14.4187 5.3335 7.1745 6.73193 7.1745 6.73193L7.15627 6.75277C4.61424 7.15932 2.66669 9.34366 2.66669 12.0002V20.0002V20.0028V28.0002V28.0028C2.66917 29.2715 3.12385 30.4978 3.94908 31.4614C4.77432 32.4251 5.91606 33.063 7.16929 33.2606L7.1745 33.2684C7.1745 33.2684 14.4187 34.6694 20 34.6694C25.5814 34.6694 32.8255 33.2684 32.8255 33.2684L32.8281 33.2658C34.0827 33.0686 35.2258 32.4302 36.0517 31.4654C36.8775 30.5006 37.332 29.2728 37.3334 28.0028V28.0002V20.0028V20.0002V12.0002C37.3315 10.731 36.8771 9.5041 36.0518 8.53991C35.2265 7.57571 34.0844 6.93743 32.8307 6.73975L32.8255 6.73193C32.8255 6.73193 25.5814 5.3335 20 5.3335ZM16 13.8647L26.6667 20.0002L16 26.1356V13.8647Z" fill="white"/>
</svg>
