<svg width="43" height="43" viewBox="0 0 43 43" fill="none" xmlns="http://www.w3.org/2000/svg">
<circle cx="21.5" cy="21.5" r="21.5" fill="#E8E9EB"/>
<path d="M22 9C14.832 9 9 14.832 9 22C9 29.168 14.832 35 22 35C29.168 35 35 29.168 35 22C35 14.832 29.168 9 22 9ZM18.666 13H25.332C28.457 13 31 15.542 31 18.666V25.332C31 28.457 28.458 31 25.334 31H18.668C15.543 31 13 28.458 13 25.334V18.668C13 15.543 15.542 13 18.666 13ZM18.666 15C16.645 15 15 16.646 15 18.668V25.334C15 27.355 16.646 29 18.668 29H25.334C27.355 29 29 27.354 29 25.332V18.666C29 16.645 27.354 15 25.332 15H18.666ZM26.668 16.666C27.036 16.666 27.334 16.964 27.334 17.332C27.334 17.7 27.036 18 26.668 18C26.3 18 26 17.7 26 17.332C26 16.964 26.3 16.666 26.668 16.666ZM22 17C24.757 17 27 19.243 27 22C27 24.757 24.757 27 22 27C19.243 27 17 24.757 17 22C17 19.243 19.243 17 22 17ZM22 19C21.2044 19 20.4413 19.3161 19.8787 19.8787C19.3161 20.4413 19 21.2044 19 22C19 22.7956 19.3161 23.5587 19.8787 24.1213C20.4413 24.6839 21.2044 25 22 25C22.7956 25 23.5587 24.6839 24.1213 24.1213C24.6839 23.5587 25 22.7956 25 22C25 21.2044 24.6839 20.4413 24.1213 19.8787C23.5587 19.3161 22.7956 19 22 19Z" fill="#220E5B"/>
</svg>
