<svg width="43" height="43" viewBox="0 0 43 43" fill="none" xmlns="http://www.w3.org/2000/svg">
<circle cx="21.5" cy="21.5" r="21.5" fill="#E8E9EB"/>
<path d="M22 14C18.78 14 14.6007 14.7627 14.6007 14.7627L14.5901 14.7741C13.1236 14.9958 12 16.1872 12 17.636V21.9993V22.0007V26.3625V26.364C12.0014 27.0559 12.2637 27.7247 12.7398 28.2503C13.2159 28.7759 13.8746 29.1238 14.5977 29.2316L14.6007 29.2359C14.6007 29.2359 18.78 30 22 30C25.22 30 29.3993 29.2359 29.3993 29.2359L29.4008 29.2344C30.1246 29.1269 30.7841 28.7787 31.2606 28.2525C31.737 27.7263 31.9992 27.0566 32 26.364V26.3625V22.0007V21.9993V17.636C31.9989 16.9438 31.7368 16.2747 31.2606 15.7488C30.7845 15.2229 30.1256 14.8748 29.4023 14.767L29.3993 14.7627C29.3993 14.7627 25.22 14 22 14ZM19.6923 18.653L25.8462 21.9993L19.6923 25.3456V18.653Z" fill="#220E5B"/>
</svg>
